<?xml version="1.0" encoding="UTF-8"?>
<!DOCTYPE svg PUBLIC "-//W3C//DTD SVG 1.1//EN" "http://www.w3.org/Graphics/SVG/1.1/DTD/svg11.dtd">
<!-- Creator: CorelDRAW 2018 (64 Bit) -->
<svg xmlns="http://www.w3.org/2000/svg" xml:space="preserve" width="35.6306mm" height="35.6306mm" version="1.1" style="shape-rendering:geometricPrecision; text-rendering:geometricPrecision; image-rendering:optimizeQuality; fill-rule:evenodd; clip-rule:evenodd"
viewBox="0 0 3563.06 3563.06"
 xmlns:xlink="http://www.w3.org/1999/xlink">
 <defs>
  <style type="text/css">
   <![CDATA[
    .fil0 {fill:#CCCCFF}
    .fil1 {fill:white}
   ]]>
  </style>
 </defs>
 <g id="Capa_x0020_1">
  <metadata id="CorelCorpID_0Corel-Layer"/>
  <circle class="fil0" cx="1781.53" cy="1781.53" r="1781.53"/>
  <path class="fil1" d="M1548.41 1695.49c190.3,0 344.56,154.26 344.56,344.56 0,190.3 -154.26,344.57 -344.56,344.57 -190.3,0 -344.57,-154.27 -344.57,-344.57 0,-190.3 154.27,-344.56 344.57,-344.56zm0 -962.92c-53.14,0 -96.22,-43.08 -96.22,-96.22 0,-53.14 43.08,-96.22 96.22,-96.22 414.17,0 789.15,167.89 1060.59,439.33 271.44,271.44 439.33,646.42 439.33,1060.59l-0.32 0c0,53.14 -43.08,96.22 -96.22,96.22 -53.14,0 -96.22,-43.08 -96.22,-96.22 0,-721.93 -585.24,-1307.16 -1307.16,-1307.16l0 -0.32zm0 383.11c-53.14,0 -96.22,-43.08 -96.22,-96.22 0,-53.14 43.08,-96.22 96.22,-96.22 308.38,0 587.58,125.01 789.69,327.12 202.11,202.11 327.12,481.31 327.12,789.69l-0.32 0c0,53.14 -43.08,96.22 -96.22,96.22 -53.14,0 -96.22,-43.08 -96.22,-96.22 0,-510.34 -413.71,-924.05 -924.05,-924.05l0 -0.32zm0 195.49c201.25,0 383.47,81.59 515.38,213.5 131.91,131.91 213.49,314.13 213.49,515.38 0,201.25 -81.58,383.48 -213.49,515.38 -131.91,131.91 -314.13,213.5 -515.38,213.5 -201.26,0 -383.48,-81.59 -515.38,-213.5 -131.91,-131.9 -213.5,-314.13 -213.5,-515.38 0,-201.25 81.59,-383.47 213.5,-515.38 131.9,-131.91 314.12,-213.5 515.38,-213.5zm0 192.76c296.09,0 536.12,240.03 536.12,536.12 0,296.09 -240.03,536.12 -536.12,536.12 -296.09,0 -536.12,-240.03 -536.12,-536.12 0,-296.09 240.03,-536.12 536.12,-536.12z"/>
 </g>
</svg>
