<?xml version="1.0" encoding="UTF-8"?>
<!DOCTYPE svg PUBLIC "-//W3C//DTD SVG 1.1//EN" "http://www.w3.org/Graphics/SVG/1.1/DTD/svg11.dtd">
<!-- Creator: CorelDRAW 2018 (64 Bit) -->
<svg xmlns="http://www.w3.org/2000/svg" xml:space="preserve" width="81.0926mm" height="27.1209mm" version="1.1" style="shape-rendering:geometricPrecision; text-rendering:geometricPrecision; image-rendering:optimizeQuality; fill-rule:evenodd; clip-rule:evenodd"
viewBox="0 0 8152.79 2726.65"
 xmlns:xlink="http://www.w3.org/1999/xlink">
 <defs>
  <style type="text/css">
   <![CDATA[
    .fil0 {fill:#373435}
    .fil1 {fill:#1A1A1A}
    .fil2 {fill:#2A9BD2}
   ]]>
  </style>
 </defs>
 <g id="Capa_x0020_1">
  <metadata id="CorelCorpID_0Corel-Layer"/>
  <path class="fil0" d="M3602.86 785.57l0 439.33 -121.23 0 0 -1118.85 246.72 0c268.01,0 254.34,229.19 254.34,400.78 0,182.75 -87.65,278.75 -272.65,278.75l-107.18 0zm958.24 202.88l-291.73 0 -53.4 236.44 -116.17 0 244.53 -1120.37 143.23 0 249.33 1120.37 -122.41 0 -53.39 -236.44zm574.4 -891.56c179.53,-1.18 252.99,128.88 252.99,292.47l0 48.41 -118.17 0c0,-97.45 4.23,-225.76 -133.12,-225.76 -156.51,0 -147.4,196.4 -111.8,262.04 91.03,167.81 364.62,200.39 364.62,467.52 0,357.21 -350.41,337.88 -449.9,210.17 -68.46,-87.87 -61.83,-187.99 -61.83,-290.61l118.17 0c0,108.24 -15.35,256.27 136.17,256.27 162.26,0 149.46,-198.56 114.93,-261.12 -90.28,-163.6 -364.7,-202.8 -364.7,-468.43 0,-164.95 74.89,-289.77 252.64,-290.95zm857.33 891.56l-291.73 0 -53.4 236.44 -116.17 0 244.53 -1120.37 143.23 0 249.33 1120.37 -122.41 0 -53.39 -236.44zm738.2 -103.43l0 -778.98 115.11 0 0 1118.85 -121.42 0 -290.44 -827.57 0 827.57 -115.12 0 0 -1118.85 135.07 0 276.8 778.98zm470.27 -663.85l-218.13 0 0 -115.12 555.97 0 0 115.12 -216.61 0 0 1003.73 -121.23 0 0 -1003.73zm600.66 494.24l0 394.37 350.84 0 0 115.12 -472.07 0 0 -1118.85 472.07 0 0 115.12 -350.84 0 0 379.11 291.36 0 0 115.12 -291.36 0zm-4059.88 784.58c181.25,0 261.97,121.16 261.97,290.95l0 536.95c0,169.8 -80.71,290.95 -261.97,290.95l-260.44 0 0 -1118.85 260.44 0zm549.19 1118.85l-121.23 0 0 -1118.85 121.23 0 0 1118.85zm561.09 -486.61l-141.87 0 0 -115.12 260.04 0 0 315.36c0,359.2 -349.84,342.87 -450.06,211.5 -46.37,-60.77 -61.67,-136.45 -61.67,-211.5l0 -546.11c0,-359.18 349.82,-342.91 450.06,-211.5 71.6,93.87 61.67,205.82 61.67,316.35l-118.17 0c0,-116.37 20.6,-285.25 -136.17,-285.25 -106.58,0 -136.18,81.67 -136.18,175.83l0 555.25c0,228.15 196.05,189.53 238.24,130.79 26.73,-37.22 34.1,-86 34.1,-130.79l0 -204.81zm406.92 486.61l-121.23 0 0 -1118.85 121.23 0 0 1118.85zm356.67 -1003.73l-218.13 0 0 -115.12 555.97 0 0 115.12 -216.61 0 0 1003.73 -121.23 0 0 -1003.73zm861.33 767.29l-291.73 0 -53.4 236.44 -116.17 0 244.53 -1120.37 143.23 0 249.33 1120.37 -122.41 0 -53.39 -236.44zm447.56 121.32l335.59 0 0 115.12 -456.82 0 0 -1118.85 121.23 0 0 1003.73zm-3321.98 -2282.55l0 449.29c261.49,0 258.6,-3.9 258.6,-284.14 0,-192.67 -104.55,-165.15 -258.6,-165.15zm935.99 655.22l-124.9 -549.29 -122.47 549.29 247.37 0zm1431.72 0l-124.9 -549.29 -122.47 549.29 247.37 0zm-2367.71 738.72l0 888.6c149.34,0 279.96,30.13 279.96,-172.77l0 -543.05c0,-202.37 -131.24,-172.78 -279.96,-172.78zm2852.17 655.22l-124.9 -549.29 -122.47 549.29 247.37 0z"/>
  <path class="fil1" d="M832.66 1410.11c217.39,0 393.62,176.23 393.62,393.62 0,217.39 -176.23,393.62 -393.62,393.62 -217.39,0 -393.62,-176.23 -393.62,-393.62 0,-217.39 176.23,-393.62 393.62,-393.62zm0 -1100.02c-60.7,0 -109.92,-49.21 -109.92,-109.92 0,-60.7 49.21,-109.92 109.92,-109.92 473.14,0 901.51,191.79 1211.6,501.88 310.09,310.09 501.88,738.45 501.88,1211.6l-0.36 0c0,60.7 -49.21,109.92 -109.92,109.92 -60.71,0 -109.92,-49.21 -109.92,-109.92 0,-824.71 -668.57,-1493.28 -1493.28,-1493.28l0 -0.36zm0 437.66c-60.7,0 -109.92,-49.21 -109.92,-109.92 0,-60.7 49.21,-109.92 109.92,-109.92 352.29,0 671.24,142.81 902.13,373.7 230.88,230.88 373.7,549.84 373.7,902.13l-0.36 0c0,60.7 -49.21,109.92 -109.93,109.92 -60.7,0 -109.92,-49.21 -109.92,-109.92 0,-583 -472.61,-1055.62 -1055.62,-1055.62l0 -0.37zm0 223.33c229.91,0 438.07,93.21 588.76,243.89 150.68,150.69 243.89,358.86 243.89,588.76 0,229.91 -93.21,438.08 -243.89,588.76 -150.69,150.68 -358.86,243.89 -588.76,243.89 -229.91,0 -438.08,-93.21 -588.76,-243.89 -150.68,-150.68 -243.89,-358.86 -243.89,-588.76 0,-229.91 93.21,-438.07 243.89,-588.76 150.68,-150.68 358.86,-243.89 588.76,-243.89zm0 220.21c338.25,0 612.45,274.2 612.45,612.45 0,338.25 -274.2,612.45 -612.45,612.45 -338.25,0 -612.45,-274.2 -612.45,-612.45 0,-338.25 274.2,-612.45 612.45,-612.45z"/>
  <rect class="fil2" x="2921.51" y="0.01" width="109.48" height="2726.65"/>
 </g>
</svg>
