<?xml version="1.0" encoding="UTF-8"?>
<!DOCTYPE svg PUBLIC "-//W3C//DTD SVG 1.1//EN" "http://www.w3.org/Graphics/SVG/1.1/DTD/svg11.dtd">
<!-- Creator: CorelDRAW 2018 (64 Bit) -->
<svg xmlns="http://www.w3.org/2000/svg" xml:space="preserve" width="80.329mm" height="25.3254mm" version="1.1" style="shape-rendering:geometricPrecision; text-rendering:geometricPrecision; image-rendering:optimizeQuality; fill-rule:evenodd; clip-rule:evenodd"
viewBox="0 0 8032.9 2532.54"
 xmlns:xlink="http://www.w3.org/1999/xlink">
 <defs>
  <style type="text/css">
   <![CDATA[
    .fil0 {fill:#1A1A1A}
    .fil2 {fill:#3E71D6}
    .fil1 {fill:#1A1A1A;fill-rule:nonzero}
   ]]>
  </style>
 </defs>
 <g id="Capa_x0020_1">
  <metadata id="CorelCorpID_0Corel-Layer"/>
  <g id="_2310232455008">
   <path class="fil0" d="M828.21 1312.81c216.23,0 391.52,175.29 391.52,391.52 0,216.23 -175.29,391.52 -391.52,391.52 -216.23,0 -391.52,-175.29 -391.52,-391.52 0,-216.23 175.29,-391.52 391.52,-391.52zm0 -1094.15c-60.38,0 -109.33,-48.95 -109.33,-109.33 0,-60.38 48.95,-109.33 109.33,-109.33 470.61,0 896.7,190.77 1205.13,499.2 308.43,308.43 499.2,734.51 499.2,1205.13l-0.36 0c0,60.38 -48.95,109.33 -109.33,109.33 -60.39,0 -109.33,-48.95 -109.33,-109.33 0,-820.31 -665,-1485.31 -1485.31,-1485.31l0 -0.36zm0 435.32c-60.38,0 -109.33,-48.95 -109.33,-109.33 0,-60.38 48.95,-109.33 109.33,-109.33 350.41,0 667.66,142.05 897.31,371.7 229.65,229.65 371.7,546.9 371.7,897.31l-0.36 0c0,60.38 -48.95,109.33 -109.34,109.33 -60.38,0 -109.33,-48.95 -109.33,-109.33 0,-579.89 -470.09,-1049.98 -1049.98,-1049.98l0 -0.37zm0 222.14c228.68,0 435.73,92.71 585.62,242.59 149.88,149.89 242.59,356.94 242.59,585.62 0,228.68 -92.71,435.74 -242.59,585.62 -149.89,149.88 -356.94,242.59 -585.62,242.59 -228.68,0 -435.74,-92.71 -585.62,-242.59 -149.88,-149.88 -242.59,-356.94 -242.59,-585.62 0,-228.68 92.71,-435.73 242.59,-585.62 149.88,-149.88 356.94,-242.59 585.62,-242.59zm0 219.03c336.44,0 609.18,272.74 609.18,609.18 0,336.44 -272.74,609.18 -609.18,609.18 -336.44,0 -609.18,-272.74 -609.18,-609.18 0,-336.44 272.74,-609.18 609.18,-609.18z"/>
   <path class="fil1" d="M3397.68 28.64l256.14 0c86.43,0 151.26,23.19 194.47,69.57 43.22,46.38 64.83,114.37 64.83,203.96l0 109.1c0,89.59 -21.61,157.58 -64.83,203.96 -43.21,46.38 -108.04,69.57 -194.47,69.57l-82.22 0 0 450.61 -173.92 0 0 -1106.77zm256.14 498.05c28.46,0 49.8,-7.91 64.03,-23.72 14.23,-15.81 21.35,-42.69 21.35,-80.63l0 -131.23c0,-37.95 -7.12,-64.83 -21.35,-80.64 -14.23,-15.81 -35.57,-23.72 -64.03,-23.72l-82.22 0 0 339.94 82.22 0zm517.98 -498.05l235.58 0 180.25 1106.77 -173.92 0 -31.62 -219.77 0 3.16 -197.64 0 -31.63 216.61 -161.27 0 180.25 -1106.77zm189.73 739.96l-77.47 -547.06 -3.17 0 -75.89 547.06 156.53 0zm616.01 382.62c-84.33,0 -148.1,-23.98 -191.32,-71.94 -43.21,-47.96 -64.82,-116.74 -64.82,-206.33l0 -63.25 164.43 0 0 75.9c0,71.67 30.04,107.51 90.13,107.51 29.51,0 51.91,-8.69 67.19,-26.09 15.29,-17.39 22.93,-45.58 22.93,-84.59 0,-46.37 -10.54,-87.22 -31.62,-122.53 -21.08,-35.31 -60.08,-77.74 -117,-127.28 -71.68,-63.24 -121.75,-120.43 -150.21,-171.55 -28.46,-51.12 -42.69,-108.83 -42.69,-173.13 0,-87.48 22.14,-155.21 66.41,-203.17 44.27,-47.96 108.57,-71.94 192.89,-71.94 83.27,0 146.25,23.98 188.94,71.94 42.69,47.96 64.04,116.74 64.04,206.34l0 45.85 -164.44 0 0 -56.92c0,-37.95 -7.38,-65.62 -22.13,-83.01 -14.76,-17.39 -36.37,-26.09 -64.83,-26.09 -57.97,0 -86.96,35.31 -86.96,105.94 0,40.05 10.81,77.47 32.42,112.25 21.6,34.79 60.87,76.95 117.79,126.49 72.73,63.24 122.79,120.69 150.2,172.34 27.41,51.65 41.11,112.26 41.11,181.83 0,90.65 -22.4,160.21 -67.2,208.7 -44.79,48.49 -109.88,72.73 -195.26,72.73zm576.48 -1122.58l235.58 0 180.25 1106.77 -173.92 0 -31.62 -219.77 0 3.16 -197.64 0 -31.63 216.61 -161.26 0 180.24 -1106.77zm189.73 739.96l-77.47 -547.06 -3.16 0 -75.9 547.06 156.53 0zm394.65 -739.96l218.19 0 169.18 662.48 3.17 0 0 -662.48 154.94 0 0 1106.77 -178.66 0 -208.71 -807.94 -3.16 0 0 807.94 -154.95 0 0 -1106.77zm895.86 158.11l-181.82 0 0 -158.11 537.57 0 0 158.11 -181.82 0 0 948.66 -173.93 0 0 -948.66zm524.31 -158.11l474.33 0 0 158.11 -300.41 0 0 292.51 238.75 0 0 158.11 -238.75 0 0 339.93 300.41 0 0 158.11 -474.33 0 0 -1106.77zm-4160.89 1368.49l265.62 0c86.44,0 151.26,23.19 194.48,69.57 43.22,46.38 64.82,114.36 64.82,203.96l0 559.71c0,89.59 -21.6,157.58 -64.82,203.96 -43.22,46.38 -108.04,69.57 -194.48,69.57l-265.62 0 0 -1106.77zm262.46 948.66c28.46,0 50.33,-8.44 65.62,-25.3 15.28,-16.87 22.92,-44.27 22.92,-82.22l0 -575.52c0,-37.94 -7.64,-65.35 -22.92,-82.21 -15.29,-16.87 -37.16,-25.3 -65.62,-25.3l-88.54 0 0 790.55 88.54 0zm464.22 -948.66l173.93 0 0 1106.77 -173.93 0 0 -1106.77zm634.99 1122.58c-84.33,0 -148.63,-23.98 -192.9,-71.94 -44.27,-47.96 -66.4,-116.74 -66.4,-206.34l0 -581.84c0,-89.59 22.13,-158.37 66.4,-206.33 44.27,-47.96 108.57,-71.94 192.9,-71.94 84.32,0 148.62,23.98 192.89,71.94 44.27,47.96 66.4,116.74 66.4,206.33l0 94.87 -164.43 0 0 -105.94c0,-72.73 -30.04,-109.09 -90.12,-109.09 -60.08,0 -90.12,36.36 -90.12,109.09l0 605.56c0,71.68 30.04,107.52 90.12,107.52 60.08,0 90.12,-35.84 90.12,-107.52l0 -216.61 -86.96 0 0 -158.11 251.39 0 0 362.07c0,89.6 -22.13,158.38 -66.4,206.34 -44.27,47.96 -108.57,71.94 -192.89,71.94zm456.31 -1122.58l173.92 0 0 1106.77 -173.92 0 0 -1106.77zm524.31 158.11l-181.83 0 0 -158.11 537.57 0 0 158.11 -181.82 0 0 948.66 -173.92 0 0 -948.66zm585.96 -158.11l235.59 0 180.24 1106.77 -173.92 0 -31.62 -219.78 0 3.17 -197.64 0 -31.62 216.61 -161.27 0 180.24 -1106.77zm189.74 739.95l-77.48 -547.06 -3.16 0 -75.89 547.06 156.53 0zm394.65 -739.95l173.92 0 0 948.66 286.18 0 0 158.11 -460.1 0 0 -1106.77z"/>
   <rect class="fil2" x="2905.91" y="31.26" width="108.9" height="2470.01"/>
  </g>
 </g>
</svg>
